name C:\Users\u0150099\Documents\master_thesis\3dpredictsim\Results\debug\Fal_s1_mtjc2_sc_cspx10_oy2_TrackAnkleQSubtQ_MTc2_MTPm_k1_d01_MTJm_nl_MG_exp5_table_d01_PF_Natali2010_x5_ls146_ig21.mot
datacolumns 128
datarows 4
range 1.64227829 1.67512385
endheader
time	pelvis_tilt	pelvis_list	pelvis_rotation	pelvis_tx	pelvis_ty	pelvis_tz	hip_flexion_l	hip_adduction_l	hip_rotation_l	hip_flexion_r	hip_adduction_r	hip_rotation_r	knee_angle_l	knee_angle_r	ankle_angle_l	ankle_angle_r	subtalar_angle_l	subtalar_angle_r	mtj_angle_l	mtj_angle_r	mtp_angle_l	mtp_angle_r	lumbar_extension	lumbar_bending	lumbar_rotation	arm_flex_l	arm_add_l	arm_rot_l	arm_flex_r	arm_add_r	arm_rot_r	elbow_flex_l	elbow_flex_r	pro_sup_l	pro_sup_r	glut_med1_l/activation	glut_med2_l/activation	glut_med3_l/activation	glut_min1_l/activation	glut_min2_l/activation	glut_min3_l/activation	semimem_l/activation	semiten_l/activation	bifemlh_l/activation	bifemsh_l/activation	sar_l/activation	add_long_l/activation	add_brev_l/activation	add_mag1_l/activation	add_mag2_l/activation	add_mag3_l/activation	tfl_l/activation	pect_l/activation	grac_l/activation	glut_max1_l/activation	glut_max2_l/activation	glut_max3_l/activation	iliacus_l/activation	psoas_l/activation	quad_fem_l/activation	gem_l/activation	peri_l/activation	rect_fem_l/activation	vas_med_l/activation	vas_int_l/activation	vas_lat_l/activation	med_gas_l/activation	lat_gas_l/activation	soleus_l/activation	tib_post_l/activation	flex_dig_l/activation	flex_hal_l/activation	tib_ant_l/activation	per_brev_l/activation	per_long_l/activation	per_tert_l/activation	ext_dig_l/activation	ext_hal_l/activation	ercspn_l/activation	intobl_l/activation	extobl_l/activation	glut_med1_r/activation	glut_med2_r/activation	glut_med3_r/activation	glut_min1_r/activation	glut_min2_r/activation	glut_min3_r/activation	semimem_r/activation	semiten_r/activation	bifemlh_r/activation	bifemsh_r/activation	sar_r/activation	add_long_r/activation	add_brev_r/activation	add_mag1_r/activation	add_mag2_r/activation	add_mag3_r/activation	tfl_r/activation	pect_r/activation	grac_r/activation	glut_max1_r/activation	glut_max2_r/activation	glut_max3_r/activation	iliacus_r/activation	psoas_r/activation	quad_fem_r/activation	gem_r/activation	peri_r/activation	rect_fem_r/activation	vas_med_r/activation	vas_int_r/activation	vas_lat_r/activation	med_gas_r/activation	lat_gas_r/activation	soleus_r/activation	tib_post_r/activation	flex_dig_r/activation	flex_hal_r/activation	tib_ant_r/activation	per_brev_r/activation	per_long_r/activation	per_tert_r/activation	ext_dig_r/activation	ext_hal_r/activation	ercspn_r/activation	intobl_r/activation	extobl_r/activation	
          1.64227829	         -2.92231886	          0.87878381	         -4.12495788	          2.18423012	          0.90621755	          0.00376067	         27.39832582	          2.05521845	         -1.46733305	        -19.39899399	          1.27275196	          8.65355896	         -5.65986539	         -5.97506867	          1.49722715	          6.33228037	         -0.15450541	          5.63533529	          2.53309677	         -1.85204514	         -7.44648058	         14.36216106	         -2.92953691	          0.34651009	          1.90456409	         -7.79179406	        -13.47991841	          4.03414835	          3.55774559	        -14.12869728	         19.38771503	         27.52952722	         35.41214083	         86.51662706	         86.51662706	          0.06990123	          0.05000012	          0.05912373	          0.05000006	          0.05000008	          0.05000027	          0.33740719	          0.06991222	          0.07183887	          0.05000005	          0.05000024	          0.12340659	          0.16264004	          0.17688496	          0.18620898	          0.13728184	          0.05000039	          0.05006929	          0.08385250	          0.10787587	          0.10701967	          0.10063970	          0.05000004	          0.05000005	          0.18784884	          0.05000019	          0.05000010	          0.05000021	          0.06317801	          0.06787871	          0.05912773	          0.07551622	          0.05000012	          0.05331128	          0.05000008	          0.09774545	          0.06003605	          0.24170011	          0.05912375	          0.08672916	          0.25534432	          0.61223328	          0.26429010	          0.05912381	          0.10174235	          0.11559262	          0.32696291	          0.11426635	          0.08266967	          0.44805485	          0.27143328	          0.13619462	          0.05000064	          0.05000007	          0.05000006	          0.08688100	          0.11571719	          0.05000002	          0.05000001	          0.05000003	          0.05000013	          0.05000011	          0.72469227	          0.05000014	          0.05000015	          0.05000393	          0.05000065	          0.05000026	          0.40617301	          0.78650433	          0.05000004	          0.05000030	          0.05912630	          0.27274581	          0.05000006	          0.05000006	          0.05000006	          0.40596690	          0.49652970	          0.31617829	          0.38686493	          0.36192620	          0.48506863	          0.05000000	          0.10923722	          0.22777757	          0.05000003	          0.05000004	          0.09775480	          0.05000000	          0.05000000	          0.05000000	
          1.65322681	         -2.92819960	          1.02483185	         -4.37217373	          2.20157270	          0.90607707	          0.00349615	         26.74636058	          2.47996044	         -1.35664998	        -19.29300087	          0.97137946	          8.53243315	         -5.32689201	         -7.87353189	          1.16962464	          5.47191482	         -0.33178061	          5.88051034	          2.64644293	         -3.09526041	         -7.68717221	         17.74733358	         -2.75907375	          0.10008660	          2.00549044	         -8.56940491	        -13.45340915	          3.74970540	          3.14730207	        -14.07534578	         19.31399944	         27.17523109	         36.61932562	         86.51662706	         86.51662706	          0.05912375	          0.05912376	          0.05000009	          0.05912378	          0.05912377	          0.05912025	          0.30775603	          0.05912378	          0.06075300	          0.05912372	          0.05000022	          0.10437216	          0.17722960	          0.14958895	          0.17593641	          0.14930698	          0.05000005	          0.05872730	          0.09035484	          0.09124441	          0.15377106	          0.17453876	          0.05000022	          0.05000008	          0.24171075	          0.17794035	          0.09746776	          0.05000003	          0.05342868	          0.05740399	          0.05000341	          0.08266966	          0.08057588	          0.05147142	          0.05000067	          0.08266882	          0.07423038	          0.26059500	          0.05000004	          0.12910203	          0.33482833	          0.63206161	          0.44356769	          0.05000005	          0.08604184	          0.09775478	          0.27650718	          0.09663319	          0.06991239	          0.37891266	          0.22954668	          0.11517756	          0.05000080	          0.05000008	          0.05000005	          0.07347384	          0.09786016	          0.09503211	          0.05000200	          0.05000085	          0.05000185	          0.05000061	          0.69977400	          0.05912437	          0.05000022	          0.05000033	          0.05000027	          0.05000036	          0.34349386	          0.72054848	          0.05000003	          0.05000012	          0.05000216	          0.25172620	          0.08165472	          0.08330326	          0.06977684	          0.34331955	          0.41990702	          0.26738679	          0.35869213	          0.40868697	          0.45143824	          0.05000000	          0.11573250	          0.21965613	          0.05000002	          0.05000000	          0.08266964	          0.05000001	          0.05256014	          0.05000000	
          1.66417533	         -2.93017650	          1.18745851	         -4.59833133	          2.21917940	          0.90601320	          0.00321682	         26.11603100	          2.87613044	         -1.22662811	        -19.07640918	          0.65700170	          8.38785574	         -5.70034222	         -9.90632306	          0.42154584	          4.32625435	         -0.54455019	          6.10276118	          2.71356072	         -4.41299994	         -7.78937625	         21.42319860	         -2.57552913	         -0.16903091	          2.09678514	         -9.33764820	        -13.45378891	          3.69093480	          2.65335630	        -14.01351170	         19.14544081	         26.76990001	         37.85589141	         86.51662706	         86.51662706	          0.05000000	          0.05000003	          0.12487885	          0.05000002	          0.05000002	          0.05000003	          0.26026425	          0.05000004	          0.05137782	          0.05000000	          0.05000008	          0.08826595	          0.28865243	          0.30705807	          0.22567057	          0.17753380	          0.05000028	          0.06991363	          0.07641175	          0.12412498	          0.15648387	          0.16054881	          0.05000002	          0.05000005	          0.41581665	          0.15048126	          0.08242691	          0.05912383	          0.14999813	          0.14843660	          0.11917849	          0.06991240	          0.06991240	          0.06991238	          0.05000000	          0.06991171	          0.06277551	          0.33525415	          0.08638460	          0.10917949	          0.53888802	          0.68197674	          0.37511926	          0.05000000	          0.07276417	          0.08266962	          0.23383760	          0.08172111	          0.05912377	          0.32044024	          0.19412388	          0.09740378	          0.05000166	          0.05000026	          0.05024286	          0.06213563	          0.08275876	          0.14849665	          0.22324111	          0.05912479	          0.05912388	          0.05912437	          0.65444462	          0.05000072	          0.05000585	          0.05912369	          0.05912377	          0.05912378	          0.29048713	          0.65880586	          0.05912377	          0.05912381	          0.05912363	          0.21288075	          0.13561763	          0.13665391	          0.11591206	          0.29033970	          0.35510848	          0.22612462	          0.30334009	          0.35306636	          0.38177410	          0.05000000	          0.09787316	          0.20862817	          0.05000001	          0.05000000	          0.06991236	          0.05366456	          0.06212981	          0.06991240	
          1.67512385	         -2.92967859	          1.39017118	         -4.80106582	          2.23692335	          0.90603754	          0.00294969	         25.45803738	          3.21114496	         -1.03938500	        -18.72917496	          0.31770285	          8.22092684	         -6.39627539	        -12.07069930	         -0.57922056	          2.82289230	         -0.75092617	          6.25020451	          2.80809941	         -5.77063299	         -7.84416654	         25.37266391	         -2.38731292	         -0.48612977	          2.17603531	        -10.06674771	        -13.48564194	          3.83510299	          2.09981467	        -13.93930209	         18.91969146	         26.28976418	         39.10815625	         86.51662706	         86.51662706	          0.33531191	          0.34740277	          0.40794017	          0.30937817	          0.24477603	          0.23982322	          0.22010122	          0.15491254	          0.10922707	          0.09775481	          0.05912384	          0.07464508	          0.24410864	          0.25967399	          0.19084594	          0.19119562	          0.05000010	          0.05912502	          0.16962910	          0.27396129	          0.22241608	          0.13577437	          0.05912372	          0.05253737	          0.35164935	          0.12725961	          0.13380405	          0.05000006	          0.12685096	          0.12553040	          0.10078730	          0.05912377	          0.05912377	          0.05912376	          0.05912379	          0.05912319	          0.05308822	          0.38582986	          0.07305404	          0.12018655	          0.45572877	          0.81616106	          0.63877669	          0.06239389	          0.08266973	          0.06991234	          0.19775309	          0.06911020	          0.05000001	          0.31467003	          0.16416739	          0.08237279	          0.05000114	          0.05000005	          0.05000002	          0.05254716	          0.06998776	          0.17081054	          0.18879148	          0.05000091	          0.05000030	          0.05000057	          0.71789025	          0.07013509	          0.05000010	          0.05000022	          0.05000013	          0.05000010	          0.24566022	          0.63489737	          0.05000001	          0.05000007	          0.05000000	          0.18002976	          0.11468962	          0.11556598	          0.09802494	          0.24553552	          0.30030941	          0.19122988	          0.25652974	          0.29858248	          0.32286015	          0.05000000	          0.15882922	          0.17643361	          0.05000004	          0.05000002	          0.05912374	          0.08665507	          0.05254216	          0.05912377	
